<svg width="1250" height="250" viewBox="0 0 1250 250" version="1.1" xmlns="http://www.w3.org/2000/svg" xmlns:xlink="http://www.w3.org/1999/xlink">
<title>Raeon</title>
<desc>Created using Figma</desc>
<g id="Canvas" transform="matrix(10 0 0 10 7260 1890)">
<g id="Raeon">
<g id="Raeon">
<use xlink:href="#path0_fill" transform="translate(-694.013 -196)" fill="url(#paint0_linear)"/>
</g>
<g id="Group">
<g id="Polygon">
<mask id="mask0_outline_ins">
<use xlink:href="#path1_fill" fill="white" transform="matrix(1 1.74264e-07 -1.7543e-07 1 -733 -193.95)"/>
</mask>
<g mask="url(#mask0_outline_ins)">
<use xlink:href="#path2_stroke_2x" transform="matrix(1 1.74264e-07 -1.7543e-07 1 -733 -193.95)" fill="url(#paint1_linear)"/>
</g>
</g>
<g id="Polygon">
<use xlink:href="#path3_fill" transform="matrix(1 1.74264e-07 -1.7543e-07 1 -721.248 -184.213)" fill="url(#paint2_linear)"/>
</g>
</g>
</g>
</g>
<defs>
<linearGradient id="paint0_linear" x1="0" y1="0" x2="1" y2="0" gradientUnits="userSpaceOnUse" gradientTransform="matrix(44.6299 10.1475 -35.7039 12.6844 53.5558 4.65094)">
<stop offset="0" stop-color="#FDCA21"/>
<stop offset="1" stop-color="#FF008A"/>
</linearGradient>
<linearGradient id="paint1_linear" x1="0" y1="0" x2="1" y2="0" gradientUnits="userSpaceOnUse" gradientTransform="matrix(2.63856e-15 38.95 -43.0909 2.385e-15 43.0909 -2.385e-15)">
<stop offset="0" stop-color="#FDCA21"/>
<stop offset="1" stop-color="#FF008A"/>
</linearGradient>
<linearGradient id="paint2_linear" x1="0" y1="0" x2="1" y2="0" gradientUnits="userSpaceOnUse" gradientTransform="matrix(7.34504 5.8425 -5.87603 7.30313 8.81405 2.67781)">
<stop offset="0" stop-color="#FDCA21"/>
<stop offset="1" stop-color="#FF008A"/>
</linearGradient>
<path id="path0_fill" d="M 19.4812 27.9405C 19.7517 28.107 19.9599 28.3255 20.1055 28.5961C 20.2721 28.8666 20.3553 29.1476 20.3553 29.439C 20.3553 29.8136 20.2304 30.1571 19.9807 30.4693C 19.6685 30.8439 19.1898 31.0312 18.5446 31.0312C 18.045 31.0312 17.5872 30.9167 17.1709 30.6878C 15.6723 29.8345 14.9231 28.0966 14.9231 25.4741C 14.9231 24.7248 14.6733 24.1316 14.1738 23.6946C 13.6951 23.2575 12.9978 23.039 12.0821 23.039L 6.24396 23.039L 6.24396 29.0956C 6.24396 29.6575 6.08786 30.1154 5.77566 30.4693C 5.48428 30.8231 5.08883 31 4.58931 31C 3.98573 31 3.45499 30.8231 2.9971 30.4693C 2.56002 30.0946 2.34148 29.6367 2.34148 29.0956L 2.34148 11.0506C 2.34148 10.5094 2.5184 10.0619 2.87222 9.7081C 3.24686 9.33346 3.70475 9.14614 4.24589 9.14614L 13.2372 9.14614C 14.3195 9.14614 15.3393 9.43753 16.2967 10.0203C 17.2541 10.6031 18.0138 11.4044 18.5758 12.4242C 19.1585 13.4441 19.4499 14.5888 19.4499 15.8584C 19.4499 16.8991 19.169 17.9189 18.607 18.9179C 18.045 19.8962 17.3166 20.6767 16.4216 21.2594C 17.7328 22.1752 18.4509 23.4032 18.5758 24.9434C 18.6382 25.2764 18.6694 25.599 18.6694 25.9112C 18.7527 26.5564 18.8359 27.0247 18.9192 27.3161C 19.0024 27.5866 19.1898 27.7948 19.4812 27.9405ZM 13.0811 19.8233C 13.4557 19.8233 13.82 19.6464 14.1738 19.2926C 14.5276 18.9388 14.819 18.4705 15.0479 17.8877C 15.2769 17.2841 15.3914 16.6389 15.3914 15.9521C 15.3914 15.3693 15.2769 14.8386 15.0479 14.3598C 14.819 13.8603 14.5276 13.4649 14.1738 13.1735C 13.82 12.8821 13.4557 12.7364 13.0811 12.7364L 6.24396 12.7364L 6.24396 19.8233L 13.0811 19.8233ZM 36.4781 13.9852C 37.0193 13.9852 37.4668 14.1621 37.8206 14.5159C 38.1744 14.8698 38.3513 15.3277 38.3513 15.8896L 38.3513 29.0956C 38.3513 29.6367 38.1744 30.0946 37.8206 30.4693C 37.4668 30.8231 37.0193 31 36.4781 31C 35.937 31 35.4895 30.8231 35.1357 30.4693C 34.8027 30.1154 34.6258 29.668 34.6049 29.1268C 34.0846 29.7304 33.377 30.2507 32.482 30.6878C 31.6078 31.1041 30.6817 31.3122 29.7034 31.3122C 28.2673 31.3122 26.9665 30.948 25.801 30.2195C 24.6354 29.4702 23.7092 28.44 23.0224 27.1287C 22.3564 25.8175 22.0234 24.3294 22.0234 22.6643C 22.0234 20.9993 22.3564 19.5111 23.0224 18.1999C 23.6884 16.8678 24.5938 15.8376 25.7385 15.1091C 26.9041 14.3598 28.1841 13.9852 29.5786 13.9852C 30.5776 13.9852 31.5142 14.1725 32.3883 14.5472C 33.2625 14.901 34.0014 15.3589 34.6049 15.9208L 34.6049 15.8896C 34.6049 15.3485 34.7819 14.901 35.1357 14.5472C 35.4895 14.1725 35.937 13.9852 36.4781 13.9852ZM 30.1717 27.878C 31.5246 27.878 32.6277 27.3889 33.481 26.4107C 34.3344 25.4117 34.761 24.1629 34.761 22.6643C 34.761 21.1658 34.3344 19.917 33.481 18.9179C 32.6277 17.9189 31.5246 17.4194 30.1717 17.4194C 28.8397 17.4194 27.747 17.9189 26.8937 18.9179C 26.0403 19.917 25.6136 21.1658 25.6136 22.6643C 25.6136 24.1629 26.0299 25.4117 26.8624 26.4107C 27.7158 27.3889 28.8189 27.878 30.1717 27.878ZM 56.7725 22.2585C 56.7517 22.758 56.5539 23.1638 56.1793 23.476C 55.8046 23.7882 55.3676 23.9443 54.8681 23.9443L 44.5655 23.9443C 44.8153 25.1723 45.3876 26.1401 46.2826 26.8478C 47.1776 27.5346 48.187 27.878 49.3109 27.878C 50.1643 27.878 50.8303 27.8052 51.309 27.6595C 51.7877 27.493 52.1623 27.3265 52.4329 27.16C 52.7243 26.9726 52.922 26.8478 53.0261 26.7853C 53.4007 26.598 53.7545 26.5043 54.0876 26.5043C 54.5246 26.5043 54.8993 26.6604 55.2115 26.9726C 55.5237 27.2848 55.6798 27.6491 55.6798 28.0653C 55.6798 28.6273 55.3884 29.1372 54.8056 29.5951C 54.2228 30.0738 53.4424 30.4797 52.4641 30.8127C 51.4859 31.1457 50.4973 31.3122 49.4983 31.3122C 47.7499 31.3122 46.2202 30.948 44.9089 30.2195C 43.6185 29.491 42.6195 28.492 41.9118 27.2224C 41.2042 25.932 40.8504 24.4855 40.8504 22.8829C 40.8504 21.0929 41.225 19.5215 41.9743 18.1687C 42.7236 16.8158 43.7122 15.7856 44.9402 15.0779C 46.1681 14.3494 47.4794 13.9852 48.8739 13.9852C 50.2475 13.9852 51.5379 14.3598 52.7451 15.1091C 53.9731 15.8584 54.9513 16.8678 55.6798 18.1374C 56.4082 19.407 56.7725 20.7807 56.7725 22.2585ZM 48.8739 17.4194C 46.4595 17.4194 45.0338 18.5537 44.5967 20.8223L 52.7763 20.8223L 52.7763 20.6038C 52.6931 19.7297 52.2664 18.9804 51.4963 18.356C 50.7262 17.7316 49.8521 17.4194 48.8739 17.4194ZM 75.3195 22.6643C 75.3195 24.3294 74.9448 25.8279 74.1956 27.16C 73.4463 28.4712 72.416 29.491 71.1048 30.2195C 69.8144 30.948 68.3887 31.3122 66.8277 31.3122C 65.2459 31.3122 63.8098 30.948 62.5193 30.2195C 61.2289 29.491 60.2091 28.4712 59.4598 27.16C 58.7105 25.8279 58.3359 24.3294 58.3359 22.6643C 58.3359 20.9993 58.7105 19.5111 59.4598 18.1999C 60.2091 16.8678 61.2289 15.8376 62.5193 15.1091C 63.8098 14.3598 65.2459 13.9852 66.8277 13.9852C 68.3887 13.9852 69.8144 14.3598 71.1048 15.1091C 72.416 15.8376 73.4463 16.8678 74.1956 18.1999C 74.9448 19.5111 75.3195 20.9993 75.3195 22.6643ZM 71.5731 22.6643C 71.5731 21.6445 71.3545 20.7391 70.9175 19.9482C 70.5012 19.1365 69.9288 18.5121 69.2004 18.075C 68.4927 17.6379 67.7018 17.4194 66.8277 17.4194C 65.9535 17.4194 65.1522 17.6379 64.4238 18.075C 63.7161 18.5121 63.1437 19.1365 62.7067 19.9482C 62.2904 20.7391 62.0823 21.6445 62.0823 22.6643C 62.0823 23.6842 62.2904 24.5895 62.7067 25.3804C 63.1437 26.1713 63.7161 26.7853 64.4238 27.2224C 65.1522 27.6595 65.9535 27.878 66.8277 27.878C 67.7018 27.878 68.4927 27.6595 69.2004 27.2224C 69.9288 26.7853 70.5012 26.1713 70.9175 25.3804C 71.3545 24.5895 71.5731 23.6842 71.5731 22.6643ZM 86.754 13.9852C 88.8769 13.9852 90.3442 14.62 91.1559 15.8896C 91.9677 17.1384 92.3735 18.8763 92.3735 21.1033L 92.3735 29.0956C 92.3735 29.6367 92.1966 30.0946 91.8428 30.4693C 91.489 30.8231 91.0415 31 90.5003 31C 89.9592 31 89.5117 30.8231 89.1579 30.4693C 88.8041 30.0946 88.6271 29.6367 88.6271 29.0956L 88.6271 21.1033C 88.6271 19.9586 88.3878 19.0636 87.9091 18.4184C 87.4304 17.7524 86.6083 17.4194 85.4427 17.4194C 84.2356 17.4194 83.2886 17.7732 82.6017 18.4809C 81.9149 19.1677 81.5715 20.0419 81.5715 21.1033L 81.5715 29.0956C 81.5715 29.6367 81.3946 30.0946 81.0407 30.4693C 80.6869 30.8231 80.2394 31 79.6983 31C 79.1571 31 78.7097 30.8231 78.3558 30.4693C 78.002 30.0946 77.8251 29.6367 77.8251 29.0956L 77.8251 16.2018C 77.8251 15.6607 78.002 15.2132 78.3558 14.8594C 78.7097 14.4847 79.1571 14.2974 79.6983 14.2974C 80.2394 14.2974 80.6869 14.4847 81.0407 14.8594C 81.3946 15.2132 81.5715 15.6607 81.5715 16.2018L 81.5715 16.7326C 82.1334 15.9833 82.8619 15.3381 83.7569 14.7969C 84.6726 14.2558 85.6717 13.9852 86.754 13.9852Z"/>
<path id="path1_fill" d="M 16.36 8.11832C 18.7794 4.33054 24.3115 4.33053 26.7309 8.11832L 34.1588 19.7475C 36.7748 23.8432 33.8332 29.2125 28.9734 29.2125L 14.1175 29.2125C 9.25767 29.2125 6.31609 23.8432 8.93213 19.7475L 16.36 8.11832Z"/>
<path id="path2_stroke_2x" d="M 34.1588 19.7475L 31.5661 21.4035L 34.1588 19.7475ZM 24.1382 9.77436L 31.5661 21.4035L 36.7515 18.0914L 29.3236 6.46228L 24.1382 9.77436ZM 28.9734 26.136L 14.1175 26.136L 14.1175 32.289L 28.9734 32.289L 28.9734 26.136ZM 11.5248 21.4035L 18.9527 9.77436L 13.7673 6.46228L 6.33942 18.0915L 11.5248 21.4035ZM 14.1175 26.136C 11.6876 26.136 10.2168 23.4514 11.5248 21.4035L 6.33942 18.0915C 2.41536 24.235 6.82773 32.289 14.1175 32.289L 14.1175 26.136ZM 31.5661 21.4035C 32.8741 23.4514 31.4033 26.136 28.9734 26.136L 28.9734 32.289C 36.2632 32.289 40.6755 24.235 36.7515 18.0914L 31.5661 21.4035ZM 29.3236 6.46228C 25.6945 0.780598 17.3964 0.780607 13.7673 6.46228L 18.9527 9.77436C 20.1624 7.88047 22.9285 7.88047 24.1382 9.77436L 29.3236 6.46228Z"/>
<path id="path3_fill" d="M 8.01974 3.05451C 8.81028 1.69307 10.7765 1.69307 11.567 3.05451L 16.4858 11.5254C 17.2797 12.8927 16.2932 14.6062 14.7121 14.6062L 4.87466 14.6062C 3.29355 14.6062 2.30707 12.8927 3.10101 11.5254L 8.01974 3.05451Z"/>
</defs>
</svg>
